<svg id="Layer_1" data-name="Layer 1" xmlns="http://www.w3.org/2000/svg" width="89" height="91" viewBox="0 0 89 91"><defs><style>.cls-1{fill:#ffc9e7;}.cls-2{fill:#3f2700;}.cls-3{fill:#fff;}</style></defs><rect class="cls-1" x="8" y="11" width="74" height="74" rx="23.75"/><path class="cls-2" d="M37.77,65.5V46.32H34.64V43.23h3.13v-1c0-3.13.69-6,2.58-7.78a7.76,7.76,0,0,1,5.43-2.07,9.46,9.46,0,0,1,3.45.64l-.55,3.13a6.18,6.18,0,0,0-2.58-.5c-3.45,0-4.33,3-4.33,6.44v1.19h5.39v3.09H41.77V65.5Z"/><path class="cls-3" d="M69,32.77C70.5,41,67.19,48.66,66.32,48.45s.6-5.93-1.06-15-5-14-4.32-14.4S67.47,24.5,69,32.77Z"/></svg>