<svg id="Layer_1" data-name="Layer 1" xmlns="http://www.w3.org/2000/svg" width="90" height="77" viewBox="0 0 90 77"><defs><style>.cls-1{fill:#ffc9e7;}.cls-2{fill:#fff;}.cls-3{fill:#3f2c00;}</style></defs><rect class="cls-1" x="8" y="1" width="74" height="74" rx="23.75"/><path class="cls-2" d="M71.21,22c2.32,8.85-.17,17.27-1,17.09s0-6.44-2.54-16.15S61.35,8.07,61.93,7.57,68.89,13.11,71.21,22Z"/><path class="cls-3" d="M31.37,26.73a2.51,2.51,0,0,1-5,0,2.47,2.47,0,0,1,2.53-2.53A2.4,2.4,0,0,1,31.37,26.73ZM26.86,55.25V33h4.05V55.25Z"/><path class="cls-3" d="M37.62,39c0-2.3,0-4.19-.18-6H41l.23,3.68h.09a8.19,8.19,0,0,1,7.36-4.18c3.08,0,7.87,1.84,7.87,9.47v13.3h-4V42.41c0-3.58-1.34-6.57-5.15-6.57A5.74,5.74,0,0,0,42,40a5.6,5.6,0,0,0-.28,1.88V55.25H37.62Z"/></svg>